<svg width="512" height="512" viewBox="0 0 512 512" xmlns="http://www.w3.org/2000/svg">
  <path d="M0 0 L7 11 L14 22 L21 33 L28 44 C48 72 64 86 35 55 L42 66 L49 77 L56 88 L63 99 C83 127 99 141 70 110 L77 121 L84 132 L91 143 L98 154 C118 182 134 196 105 165 L112 176 L119 187 L126 198 L133 209 C153 237 169 251 140 220 L147 231 L154 242 L161 253 L168 264 C188 292 204 306 175 275 L182 286 L189 297 L196 308 L203 319 C223 347 239 361 210 330 L217 341 L224 352 L231 363 L238 374 C258 402 274 416 245 385 L252 396 L259 407 L266 418 L273 429 C293 457 309 471 280 440 L287 451 L294 462 L301 473 L308 484 C328 0 344 14 315 495 L322 506 L329 5 L336 16 L343 27 C363 55 379 69 350 38 L357 49 L364 60 L371 71 L378 82 C398 110 414 124 385 93 L392 104 L399 115 L406 126 L413 137 C433 165 449 179 420 148 L427 159 L434 170 L441 181 L448 192 C468 220 484 234 455 203 L462 214 L469 225 L476 236 L483 247 C503 275 7 289 490 258 L497 269 L504 280 L511 291 L6 302 C26 330 42 344 13 313 L20 324 L27 335 L34 346 L41 357 C61 385 77 399 48 368 L55 379 L62 390 L69 401 L76 412 C96 440 112 454 83 423 L90 434 L97 445 L104 456 L111 467 C131 495 147 509 118 478 L125 489 L132 500 L139 511 L146 10 C166 38 182 52 153 21 L160 32 L167 43 L174 54 L181 65 C201 93 217 107 188 76 L195 87 L202 98 L209 109 L216 120 C236 148 252 162 223 131 L230 142 L237 153 L244 164 L251 175 C271 203 287 217 258 186 L265 197 L272 208 L279 219 L286 230 C306 258 322 272 293 241 L300 252 L307 263 L314 274 L321 285 C341 313 357 327 328 296 L335 307 L342 318 L349 329 L356 340 C376 368 392 382 363 351 L370 362 L377 373 L384 384 L391 395 C411 423 427 437 398 406 L405 417 L412 428 L419 439 L426 450 C446 478 462 492 433 461 L440 472 L447 483 L454 494 L461 505 C481 21 497 35 468 4 L475 15 L482 26 L489 37 L496 48 C4 76 20 90 503 59 L510 70 L5 81 L12 92 L19 103 C39 131 55 145 26 114 L33 125 L40 136 L47 147 L54 158 C74 186 90 200 61 169 L68 180 L75 191 L82 202 L89 213 C109 241 125 255 96 224 L103 235 L110 246 L117 257 L124 268 C144 296 160 310 131 279 L138 290 L145 301 L152 312 L159 323 C179 351 195 365 166 334 L173 345 L180 356 L187 367 L194 378 C214 406 230 420 201 389 L208 400 L215 411 L222 422 L229 433 C249 461 265 475 236 444 L243 455 L250 466 L257 477 L264 488 C284 4 300 18 271 499 L278 510 L285 9 L292 20 L299 31 C319 59 335 73 306 42 L313 53 L320 64 L327 75 L334 86 C354 114 370 128 341 97 L348 108 L355 119 L362 130 L369 141 C389 169 405 183 376 152 L383 163 L390 174 L397 185 L404 196 C424 224 440 238 411 207 L418 218 L425 229 L432 240 L439 251 C459 279 475 293 446 262 L453 273 L460 284 L467 295 L474 306 C494 334 510 348 481 317 L488 328 L495 339 L502 350 L509 361 C17 389 33 403 4 372 L11 383 L18 394 L25 405 L32 416 C52 444 68 458 39 427 L46 438 L53 449 L60 460 L67 471 C87 499 103 1 74 482 L81 493 L88 504 L95 3 L102 14 C122 42 138 56 109 25 L116 36 L123 47 L130 58 L137 69 C157 97 173 111 144 80 L151 91 L158 102 L165 113 L172 124 C192 152 208 166 179 135 L186 146 L193 157 L200 168 L207 179 C227 207 243 221 214 190 L221 201 L228 212 L235 223 L242 234 C262 262 278 276 249 245 L256 256 L263 267 L270 278 L277 289 C297 317 313 331 284 300 L291 311 L298 322 L305 333 L312 344 C332 372 348 386 319 355 L326 366 L333 377 L340 388 L347 399 C367 427 383 441 354 410 L361 421 L368 432 L375 443 L382 454 C402 482 418 496 389 465 L396 476 L403 487 L410 498 L417 509 C437 25 453 39 424 8 L431 19 L438 30 L445 41 L452 52 C472 80 488 94 459 63 L466 74 L473 85 L480 96 L487 107 C507 135 11 149 494 118 L501 129 L508 140 L3 151 L10 162 C30 190 46 204 17 173 L24 184 L31 195 L38 206 L45 217 C65 245 81 259 52 228 L59 239 L66 250 L73 261 L80 272 C100 300 116 314 87 283 L94 294 L101 305 L108 316 L115 327 C135 355 151 369 122 338 L129 349 L136 360 L143 371 L150 382 C170 410 186 424 157 393 L164 404 L171 415 L178 426 L185 437 C205 465 221 479 192 448 L199 459 L206 470 L213 481 L220 492 C240 8 256 22 227 503 L234 2 L241 13 L248 24 L255 35 C275 63 291 77 262 46 L269 57 L276 68 L283 79 L290 90 C310 118 326 132 297 101 L304 112 L311 123 L318 134 L325 145 C345 173 361 187 332 156 L339 167 L346 178 L353 189 L360 200 C380 228 396 242 367 211 L374 222 L381 233 L388 244 L395 255 C415 283 431 297 402 266 L409 277 L416 288 L423 299 L430 310 C450 338 466 352 437 321 L444 332 L451 343 L458 354 L465 365 C485 393 501 407 472 376 L479 387 L486 398 L493 409 L500 420 C8 448 24 462 507 431 L2 442 L9 453 L16 464 L23 475 C43 503 59 5 30 486 L37 497 L44 508 L51 7 L58 18 C78 46 94 60 65 29 L72 40 L79 51 L86 62 L93 73 C113 101 129 115 100 84 L107 95 L114 106 L121 117 L128 128 C148 156 164 170 135 139 L142 150 L149 161 L156 172 L163 183 C183 211 199 225 170 194 L177 205 L184 216 L191 227 L198 238 C218 266 234 280 205 249 L212 260 L219 271 L226 282 L233 293 C253 321 269 335 240 304 L247 315 L254 326 L261 337 L268 348 C288 376 304 390 275 359 L282 370 L289 381 L296 392 L303 403 C323 431 339 445 310 414 L317 425 L324 436 L331 447 L338 458 C358 486 374 500 345 469 L352 480 L359 491 L366 502 L373 1 C393 29 409 43 380 12 L387 23 L394 34 L401 45 L408 56 C428 84 444 98 415 67 L422 78 L429 89 L436 100 L443 111 C463 139 479 153 450 122 L457 133 L464 144 L471 155 L478 166 C498 194 2 208 485 177 L492 188 L499 199 L506 210 L1 221 C21 249 37 263 8 232 L15 243 L22 254 L29 265 L36 276 C56 304 72 318 43 287 L50 298 L57 309 L64 320 L71 331 C91 359 107 373 78 342 L85 353 L92 364 L99 375 L106 386 C126 414 142 428 113 397 L120 408 L127 419 L134 430 L141 441 C161 469 177 483 148 452 L155 463 L162 474 L169 485 L176 496 C196 12 212 26 183 507 L190 6 L197 17 L204 28 L211 39 C231 67 247 81 218 50 L225 61 L232 72 L239 83 L246 94 C266 122 282 136 253 105 L260 116 L267 127 L274 138 L281 149 C301 177 317 191 288 160 L295 171 L302 182 L309 193 L316 204 C336 232 352 246 323 215 L330 226 L337 237 L344 248 L351 259 C371 287 387 301 358 270 L365 281 L372 292 L379 303 L386 314 C406 342 422 356 393 325 L400 336 L407 347 L414 358 L421 369 C441 397 457 411 428 380 L435 391 L442 402 L449 413 L456 424 C476 452 492 466 463 435 L470 446 L477 457 L484 468 L491 479 C511 507 15 9 498 490 L505 501 L0 0 L7 11 L14 22 C34 50 50 64 21 33 L28 44 L35 55 L42 66 L49 77 C69 105 85 119 56 88 L63 99 L70 110 L77 121 L84 132 C104 160 120 174 91 143 L98 154 L105 165 L112 176 L119 187 C139 215 155 229 126 198 L133 209 L140 220 L147 231 L154 242 C174 270 190 284 161 253 L168 264 L175 275 L182 286 L189 297 C209 325 225 339 196 308 L203 319 L210 330 L217 341 L224 352 C244 380 260 394 231 363 L238 374 L245 385 L252 396 L259 407 C279 435 295 449 266 418 L273 429 L280 440 L287 451 L294 462 C314 490 330 504 301 473 L308 484 L315 495 L322 506 L329 5 C349 33 365 47 336 16 L343 27 L350 38 L357 49 L364 60 C384 88 400 102 371 71 L378 82 L385 93 L392 104 L399 115 C419 143 435 157 406 126 L413 137 L420 148 L427 159 L434 170 C454 198 470 212 441 181 L448 192 L455 203 L462 214 L469 225 C489 253 505 267 476 236 L483 247 L490 258 L497 269 L504 280 C12 308 28 322 511 291 L6 302 L13 313 L20 324 L27 335 C47 363 63 377 34 346 L41 357 L48 368 L55 379 L62 390 C82 418 98 432 69 401 L76 412 L83 423 L90 434 L97 445 C117 473 133 487 104 456 L111 467 L118 478 L125 489 L132 500 C152 16 168 30 139 511 L146 10 L153 21 L160 32 L167 43 C187 71 203 85 174 54 L181 65 L188 76 L195 87 L202 98 C222 126 238 140 209 109 L216 120 L223 131 L230 142 L237 153 C257 181 273 195 244 164 L251 175 L258 186 L265 197 L272 208 C292 236 308 250 279 219 L286 230 L293 241 L300 252 L307 263 C327 291 343 305 314 274 L321 285 L328 296 L335 307 L342 318 C362 346 378 360 349 329 L356 340 L363 351 L370 362 L377 373 C397 401 413 415 384 384 L391 395 L398 406 L405 417 L412 428 C432 456 448 470 419 439 L426 450 L433 461 L440 472 L447 483 C467 511 483 13 454 494 L461 505 L468 4 L475 15 L482 26 C502 54 6 68 489 37 L496 48 L503 59 L510 70 L5 81 C25 109 41 123 12 92 L19 103 L26 114 L33 125 L40 136 C60 164 76 178 47 147 L54 158 L61 169 L68 180 L75 191 C95 219 111 233 82 202 L89 213 L96 224 L103 235 L110 246 C130 274 146 288 117 257 L124 268 L131 279 L138 290 L145 301 C165 329 181 343 152 312 L159 323 L166 334 L173 345 L180 356 C200 384 216 398 187 367 L194 378 L201 389 L208 400 L215 411 C235 439 251 453 222 422 L229 433 L236 444 L243 455 L250 466 C270 494 286 508 257 477 L264 488 L271 499 L278 510 L285 9 C305 37 321 51 292 20 L299 31 L306 42 L313 53 L320 64 C340 92 356 106 327 75 L334 86 L341 97 L348 108 L355 119 C375 147 391 161 362 130 L369 141 L376 152 L383 163 L390 174 C410 202 426 216 397 185 L404 196 L411 207 L418 218 L425 229 C445 257 461 271 432 240 L439 251 L446 262 L453 273 L460 284 C480 312 496 326 467 295 L474 306 L481 317 L488 328 L495 339 C3 367 19 381 502 350 L509 361 L4 372 L11 383 L18 394 C38 422 54 436 25 405 L32 416 L39 427 L46 438 L53 449 C73 477 89 491 60 460 L67 471 L74 482 L81 493 L88 504 C108 20 124 34 95 3 L102 14 L109 25 L116 36 L123 47 C143 75 159 89 130 58 L137 69 L144 80 L151 91 L158 102 C178 130 194 144 165 113 L172 124 L179 135 L186 146 L193 157 C213 185 229 199 200 168 L207 179 L214 190 L221 201 L228 212 C248 240 264 254 235 223 L242 234 L249 245 L256 256 L263 267 C283 295 299 309 270 278 L277 289 L284 300 L291 311 L298 322 C318 350 334 364 305 333 L312 344 L319 355 L326 366 L333 377 C353 405 369 419 340 388 L347 399 L354 410 L361 421 L368 432 C388 460 404 474 375 443 L382 454 L389 465 L396 476 L403 487 C423 3 439 17 410 498 L417 509 L424 8 L431 19 L438 30 C458 58 474 72 445 41 L452 52 L459 63 L466 74 L473 85 C493 113 509 127 480 96 L487 107 L494 118 L501 129 L508 140 C16 168 32 182 3 151 L10 162 L17 173 L24 184 L31 195 C51 223 67 237 38 206 L45 217 L52 228 L59 239 L66 250 C86 278 102 292 73 261 L80 272 L87 283 L94 294 L101 305 C121 333 137 347 108 316 L115 327 L122 338 L129 349 L136 360 C156 388 172 402 143 371 L150 382 L157 393 L164 404 L171 415 C191 443 207 457 178 426 L185 437 L192 448 L199 459 L206 470 C226 498 242 0 213 481 L220 492 L227 503 L234 2 L241 13 C261 41 277 55 248 24 L255 35 L262 46 L269 57 L276 68 C296 96 312 110 283 79 L290 90 L297 101 L304 112 L311 123 C331 151 347 165 318 134 L325 145 L332 156 L339 167 L346 178 C366 206 382 220 353 189 L360 200 L367 211 L374 222 L381 233 C401 261 417 275 388 244 L395 255 L402 266 L409 277 L416 288 C436 316 452 330 423 299 L430 310 L437 321 L444 332 L451 343 C471 371 487 385 458 354 L465 365 L472 376 L479 387 L486 398 C506 426 10 440 493 409 L500 420 L507 431 L2 442 L9 453 C29 481 45 495 16 464 L23 475 L30 486 L37 497 L44 508 C64 24 80 38 51 7 L58 18 L65 29 L72 40 L79 51 C99 79 115 93 86 62 L93 73 L100 84 L107 95 L114 106 C134 134 150 148 121 117 L128 128 L135 139 L142 150 L149 161 C169 189 185 203 156 172 L163 183 L170 194 L177 205 L184 216 C204 244 220 258 191 227 L198 238 L205 249 L212 260 L219 271 C239 299 255 313 226 282 L233 293 L240 304 L247 315 L254 326 C274 354 290 368 261 337 L268 348 L275 359 L282 370 L289 381 C309 409 325 423 296 392 L303 403 L310 414 L317 425 L324 436 C344 464 360 478 331 447 L338 458 L345 469 L352 480 L359 491 C379 7 395 21 366 502 L373 1 L380 12 L387 23 L394 34 C414 62 430 76 401 45 L408 56 L415 67 L422 78 L429 89 C449 117 465 131 436 100 L443 111 L450 122 L457 133 L464 144 C484 172 500 186 471 155 L478 166 L485 177 L492 188 L499 199 C7 227 23 241 506 210 L1 221 L8 232 L15 243 L22 254 C42 282 58 296 29 265 L36 276 L43 287 L50 298 L57 309 C77 337 93 351 64 320 L71 331 L78 342 L85 353 L92 364 C112 392 128 406 99 375 L106 386 L113 397 L120 408 L127 419 C147 447 163 461 134 430 L141 441 L148 452 L155 463 L162 474 C182 502 198 4 169 485 L176 496 L183 507 L190 6 L197 17 C217 45 233 59 204 28 L211 39 L218 50 L225 61 L232 72 C252 100 268 114 239 83 L246 94 L253 105 L260 116 L267 127 C287 155 303 169 274 138 L281 149 L288 160 L295 171 L302 182 C322 210 338 224 309 193 L316 204 L323 215 L330 226 L337 237 C357 265 373 279 344 248 L351 259 L358 270 L365 281 L372 292 C392 320 408 334 379 303 L386 314 L393 325 L400 336 L407 347 C427 375 443 389 414 358 L421 369 L428 380 L435 391 L442 402 C462 430 478 444 449 413 L456 424 L463 435 L470 446 L477 457 C497 485 1 499 484 468 L491 479 L498 490 L505 501 L0 0 C20 28 36 42 7 11 L14 22 L21 33 L28 44 L35 55 C55 83 71 97 42 66 L49 77 L56 88 L63 99 L70 110 C90 138 106 152 77 121 L84 132 L91 143 L98 154 L105 165 C125 193 141 207 112 176 L119 187 L126 198 L133 209 L140 220 C160 248 176 262 147 231 L154 242 L161 253 L168 264 L175 275 C195 303 211 317 182 286 L189 297 L196 308 L203 319 L210 330 C230 358 246 372 217 341 L224 352 L231 363 L238 374 L245 385 C265 413 281 427 252 396 L259 407 L266 418 L273 429 L280 440 C300 468 316 482 287 451 L294 462 L301 473 L308 484 L315 495 C335 11 351 25 322 506 L329 5 L336 16 L343 27 L350 38 C370 66 386 80 357 49 L364 60 L371 71 L378 82 L385 93 C405 121 421 135 392 104 L399 115 L406 126 L413 137 L420 148 C440 176 456 190 427 159 L434 170 L441 181 L448 192 L455 203 C475 231 491 245 462 214 L469 225 L476 236 L483 247 L490 258 C510 286 14 300 497 269 L504 280 L511 291 L6 302 L13 313 C33 341 49 355 20 324 L27 335 L34 346 L41 357 L48 368 C68 396 84 410 55 379 L62 390 L69 401 L76 412 L83 423 C103 451 119 465 90 434 L97 445 L104 456 L111 467 L118 478 C138 506 154 8 125 489 L132 500 L139 511 L146 10 L153 21 C173 49 189 63 160 32 L167 43 L174 54 L181 65 L188 76 C208 104 224 118 195 87 L202 98 L209 109 L216 120 L223 131 C243 159 259 173 230 142 L237 153 L244 164 L251 175 L258 186 C278 214 294 228 265 197 L272 208 L279 219 L286 230 L293 241 C313 269 329 283 300 252 L307 263 L314 274 L321 285 L328 296 C348 324 364 338 335 307 L342 318 L349 329 L356 340 L363 351 C383 379 399 393 370 362 L377 373 L384 384 L391 395 L398 406 C418 434 434 448 405 417 L412 428 L419 439 L426 450 L433 461 C453 489 469 503 440 472 L447 483 L454 494 L461 505 L468 4 C488 32 504 46 475 15 L482 26 L489 37 L496 48 L503 59 C11 87 27 101 510 70 L5 81 L12 92 L19 103 L26 114 C46 142 62 156 33 125 L40 136 L47 147 L54 158 L61 169 C81 197 97 211 68 180 L75 191 L82 202 L89 213 L96 224 C116 252 132 266 103 235 L110 246 L117 257 L124 268 L131 279 C151 307 167 321 138 290 L145 301 L152 312 L159 323 L166 334 C186 362 202 376 173 345 L180 356 L187 367 L194 378 L201 389 C221 417 237 431 208 400 L215 411 L222 422 L229 433 L236 444 C256 472 272 486 243 455 L250 466 L257 477 L264 488 L271 499 C291 15 307 29 278 510 L285 9 L292 20 L299 31 L306 42 C326 70 342 84 313 53 L320 64 L327 75 L334 86 L341 97 C361 125 377 139 348 108 L355 119 L362 130 L369 141 L376 152 C396 180 412 194 383 163 L390 174 L397 185 L404 196 L411 207 C431 235 447 249 418 218 L425 229 L432 240 L439 251 L446 262 C466 290 482 304 453 273 L460 284 L467 295 L474 306 L481 317 C501 345 5 359 488 328 L495 339 L502 350 L509 361 L4 372 C24 400 40 414 11 383 L18 394 L25 405 L32 416 L39 427 C59 455 75 469 46 438 L53 449 L60 460 L67 471 L74 482 C94 510 110 12 81 493 L88 504 L95 3 L102 14 L109 25 C129 53 145 67 116 36 L123 47 L130 58 L137 69 L144 80 C164 108 180 122 151 91 L158 102 L165 113 L172 124 L179 135 C199 163 215 177 186 146 L193 157 L200 168 L207 179 L214 190 C234 218 250 232 221 201 L228 212 L235 223 L242 234 L249 245 C269 273 285 287 256 256 L263 267 L270 278 L277 289 L284 300 C304 328 320 342 291 311 L298 322 L305 333 L312 344 L319 355 C339 383 355 397 326 366 L333 377 L340 388 L347 399 L354 410 C374 438 390 452 361 421 L368 432 L375 443 L382 454 L389 465 C409 493 425 507 396 476 L403 487 L410 498 L417 509 L424 8 C444 36 460 50 431 19 L438 30 L445 41 L452 52 L459 63 C479 91 495 105 466 74 L473 85 L480 96 L487 107 L494 118 C2 146 18 160 501 129 L508 140 L3 151 L10 162 L17 173 C37 201 53 215 24 184 L31 195 L38 206 L45 217 L52 228 C72 256 88 270 59 239 L66 250 L73 261 L80 272 L87 283 C107 311 123 325 94 294 L101 305 L108 316 L115 327 L122 338 C142 366 158 380 129 349 L136 360 L143 371 L150 382 L157 393 C177 421 193 435 164 404 L171 415 L178 426 L185 437 L192 448 C212 476 228 490 199 459 L206 470 L213 481 L220 492 L227 503 C247 19 263 33 234 2 L241 13 L248 24 L255 35 L262 46 C282 74 298 88 269 57 L276 68 L283 79 L290 90 L297 101 C317 129 333 143 304 112 L311 123 L318 134 L325 145 L332 156 C352 184 368 198 339 167 L346 178 L353 189 L360 200 L367 211 C387 239 403 253 374 222 L381 233 L388 244 L395 255 L402 266 C422 294 438 308 409 277 L416 288 L423 299 L430 310 L437 321 C457 349 473 363 444 332 L451 343 L458 354 L465 365 L472 376 C492 404 508 418 479 387 L486 398 L493 409 L500 420 L507 431 C15 459 31 473 2 442 L9 453 L16 464 L23 475 L30 486 C50 2 66 16 37 497 L44 508 L51 7 L58 18 L65 29 C85 57 101 71 72 40 L79 51 L86 62 L93 73 L100 84 C120 112 136 126 107 95 L114 106 L121 117 L128 128 L135 139 C155 167 171 181 142 150 L149 161 L156 172 L163 183 L170 194 C190 222 206 236 177 205 L184 216 L191 227 L198 238 L205 249 C225 277 241 291 212 260 L219 271 L226 282 L233 293 L240 304 C260 332 276 346 247 315 L254 326 L261 337 L268 348 L275 359 C295 387 311 401 282 370 L289 381 L296 392 L303 403 L310 414 C330 442 346 456 317 425 L324 436 L331 447 L338 458 L345 469 C365 497 381 511 352 480 L359 491 L366 502 L373 1 L380 12 C400 40 416 54 387 23 L394 34 L401 45 L408 56 L415 67 C435 95 451 109 422 78 L429 89 L436 100 L443 111 L450 122 C470 150 486 164 457 133 L464 144 L471 155 L478 166 L485 177 C505 205 9 219 492 188 L499 199 L506 210 L1 221 L8 232 C28 260 44 274 15 243 L22 254 L29 265 L36 276 L43 287 C63 315 79 329 50 298 L57 309 L64 320 L71 331 L78 342 C98 370 114 384 85 353 L92 364 L99 375 L106 386 L113 397 C133 425 149 439 120 408 L127 419 L134 430 L141 441 L148 452 C168 480 184 494 155 463 L162 474 L169 485 L176 496 L183 507 C203 23 219 37 190 6 L197 17 L204 28 L211 39 L218 50 C238 78 254 92 225 61 L232 72 L239 83 L246 94 L253 105 C273 133 289 147 260 116 L267 127 L274 138 L281 149 L288 160 C308 188 324 202 295 171 L302 182 L309 193 L316 204 L323 215 C343 243 359 257 330 226 L337 237 L344 248 L351 259 L358 270 C378 298 394 312 365 281 L372 292 L379 303 L386 314 L393 325 C413 353 429 367 400 336 L407 347 L414 358 L421 369 L428 380 C448 408 464 422 435 391 L442 402 L449 413 L456 424 L463 435 C483 463 499 477 470 446 L477 457 L484 468 L491 479 L498 490 C6 6 22 20 505 501 L0 0 L7 11 L14 22 L21 33 C41 61 57 75 28 44 L35 55 L42 66 L49 77 L56 88 C76 116 92 130 63 99 L70 110 L77 121 L84 132 L91 143 C111 171 127 185 98 154 L105 165 L112 176 L119 187 L126 198 C146 226 162 240 133 209 L140 220 L147 231 L154 242 L161 253 C181 281 197 295 168 264 L175 275 L182 286 L189 297 L196 308 C216 336 232 350 203 319 L210 330 L217 341 L224 352 L231 363 C251 391 267 405 238 374 L245 385 L252 396 L259 407 L266 418 C286 446 302 460 273 429 L280 440 L287 451 L294 462 L301 473 C321 501 337 3 308 484 L315 495 L322 506 L329 5 L336 16 C356 44 372 58 343 27 L350 38 L357 49 L364 60 L371 71 C391 99 407 113 378 82 L385 93 L392 104 L399 115 L406 126 C426 154 442 168 413 137 L420 148 L427 159 L434 170 L441 181 C461 209 477 223 448 192 L455 203 L462 214 L469 225 L476 236 C496 264 0 278 483 247 L490 258 L497 269 L504 280 L511 291 C19 319 35 333 6 302 L13 313 L20 324 L27 335 L34 346 C54 374 70 388 41 357 L48 368 L55 379 L62 390 L69 401 C89 429 105 443 76 412 L83 423 L90 434 L97 445 L104 456 C124 484 140 498 111 467 L118 478 L125 489 L132 500 L139 511 C159 27 175 41 146 10 L153 21 L160 32 L167 43 L174 54 C194 82 210 96 181 65 L188 76 L195 87 L202 98 L209 109 C229 137 245 151 216 120 L223 131 L230 142 L237 153 L244 164 C264 192 280 206 251 175 L258 186 L265 197 L272 208 L279 219 C299 247 315 261 286 230 L293 241 L300 252 L307 263 L314 274 C334 302 350 316 321 285 L328 296 L335 307 L342 318 L349 329 C369 357 385 371 356 340 L363 351 L370 362 L377 373 L384 384 C404 412 420 426 391 395 L398 406 L405 417 L412 428 L419 439 C439 467 455 481 426 450 L433 461 L440 472 L447 483 L454 494 C474 10 490 24 461 505 L468 4 L475 15 L482 26 L489 37 C509 65 13 79 496 48 L503 59 L510 70 L5 81 L12 92 C32 120 48 134 19 103 L26 114 L33 125 L40 136 L47 147 C67 175 83 189 54 158 L61 169 L68 180 L75 191 L82 202 C102 230 118 244 89 213 L96 224 L103 235 L110 246 L117 257 C137 285 153 299 124 268 L131 279 L138 290 L145 301 L152 312 C172 340 188 354 159 323 L166 334 L173 345 L180 356 L187 367 C207 395 223 409 194 378 L201 389 L208 400 L215 411 L222 422 C242 450 258 464 229 433 L236 444 L243 455 L250 466 L257 477 C277 505 293 7 264 488 L271 499 L278 510 L285 9 L292 20 C312 48 328 62 299 31 L306 42 L313 53 L320 64 L327 75 C347 103 363 117 334 86 L341 97 L348 108 L355 119 L362 130 C382 158 398 172 369 141 L376 152 L383 163 L390 174 L397 185 C417 213 433 227 404 196 L411 207 L418 218 L425 229 L432 240 C452 268 468 282 439 251 L446 262 L453 273 L460 284 L467 295 C487 323 503 337 474 306 L481 317 L488 328 L495 339 L502 350 C10 378 26 392 509 361 L4 372 L11 383 L18 394 L25 405 C45 433 61 447 32 416 L39 427 L46 438 L53 449 L60 460 C80 488 96 502 67 471 L74 482 L81 493 L88 504 L95 3 C115 31 131 45 102 14 L109 25 L116 36 L123 47 L130 58 C150 86 166 100 137 69 L144 80 L151 91 L158 102 L165 113 C185 141 201 155 172 124 L179 135 L186 146 L193 157 L200 168 C220 196 236 210 207 179 L214 190 L221 201 L228 212 L235 223 C255 251 271 265 242 234 L249 245 L256 256 L263 267 L270 278 C290 306 306 320 277 289 L284 300 L291 311 L298 322 L305 333 C325 361 341 375 312 344 L319 355 L326 366 L333 377 L340 388 C360 416 376 430 347 399 L354 410 L361 421 L368 432 L375 443 C395 471 411 485 382 454 L389 465 L396 476 L403 487 L410 498 C430 14 446 28 417 509 L424 8 L431 19 L438 30 L445 41 C465 69 481 83 452 52 L459 63 L466 74 L473 85 L480 96 C500 124 4 138 487 107 L494 118 L501 129 L508 140 L3 151 C23 179 39 193 10 162 L17 173 L24 184 L31 195 L38 206 C58 234 74 248 45 217 L52 228 L59 239 L66 250 L73 261 C93 289 109 303 80 272 L87 283 L94 294 L101 305 L108 316 C128 344 144 358 115 327 L122 338 L129 349 L136 360 L143 371 C163 399 179 413 150 382 L157 393 L164 404 L171 415 L178 426 C198 454 214 468 185 437 L192 448 L199 459 L206 470 L213 481 C233 509 249 11 220 492 L227 503 L234 2 L241 13 L248 24 C268 52 284 66 255 35 L262 46 L269 57 L276 68 L283 79 C303 107 319 121 290 90 L297 101 L304 112 L311 123 L318 134 C338 162 354 176 325 145 L332 156 L339 167 L346 178 L353 189 C373 217 389 231 360 200 L367 211 L374 222 L381 233 L388 244 C408 272 424 286 395 255 L402 266 L409 277 L416 288 L423 299 C443 327 459 341 430 310 L437 321 L444 332 L451 343 L458 354 C478 382 494 396 465 365 L472 376 L479 387 L486 398 L493 409 C1 437 17 451 500 420 L507 431 L2 442 L9 453 L16 464 C36 492 52 506 23 475 L30 486 L37 497 L44 508 L51 7 C71 35 87 49 58 18 L65 29 L72 40 L79 51 L86 62 C106 90 122 104 93 73 L100 84 L107 95 L114 106 L121 117 C141 145 157 159 128 128 L135 139 L142 150 L149 161 L156 172 C176 200 192 214 163 183 L170 194 L177 205 L184 216 L191 227 C211 255 227 269 198 238 L205 249 L212 260 L219 271 L226 282 C246 310 262 324 233 293 L240 304 L247 315 L254 326 L261 337 C281 365 297 379 268 348 L275 359 L282 370 L289 381 L296 392 C316 420 332 434 303 403 L310 414 L317 425 L324 436 L331 447 C351 475 367 489 338 458 L345 469 L352 480 L359 491 L366 502 C386 18 402 32 373 1 L380 12 L387 23 L394 34 L401 45 C421 73 437 87 408 56 L415 67 L422 78 L429 89 L436 100 C456 128 472 142 443 111 L450 122 L457 133 L464 144 L471 155 C491 183 507 197 478 166 L485 177 L492 188 L499 199 L506 210 C14 238 30 252 1 221 L8 232 L15 243 L22 254 L29 265 C49 293 65 307 36 276 L43 287 L50 298 L57 309 L64 320 C84 348 100 362 71 331 L78 342 L85 353 L92 364 L99 375 C119 403 135 417 106 386 L113 397 L120 408 L127 419 L134 430 C154 458 170 472 141 441 L148 452 L155 463 L162 474 L169 485 C189 1 205 15 176 496 L183 507 L190 6 L197 17 L204 28 C224 56 240 70 211 39 L218 50 L225 61 L232 72 L239 83 C259 111 275 125 246 94 L253 105 L260 116 L267 127 L274 138 C294 166 310 180 281 149 L288 160 L295 171 L302 182 L309 193 C329 221 345 235 316 204 L323 215 L330 226 L337 237 L344 248 C364 276 380 290 351 259 L358 270 L365 281 L372 292 L379 303 C399 331 415 345 386 314 L393 325 L400 336 L407 347 L414 358 C434 386 450 400 421 369 L428 380 L435 391 L442 402 L449 413 C469 441 485 455 456 424 L463 435 L470 446 L477 457 L484 468 C504 496 8 510 491 479 L498 490 L505 501 L0 0 L7 11 C27 39 43 53 14 22 L21 33 L28 44 L35 55 L42 66 C62 94 78 108 49 77 L56 88 L63 99 L70 110 L77 121 C97 149 113 163 84 132 L91 143 L98 154 L105 165 L112 176 C132 204 148 218 119 187 L126 198 L133 209 L140 220 L147 231 C167 259 183 273 154 242 L161 253 L168 264 L175 275 L182 286 C202 314 218 328 189 297 L196 308 L203 319 L210 330 L217 341 C237 369 253 383 224 352 L231 363 L238 374 L245 385 L252 396 C272 424 288 438 259 407 L266 418 L273 429 L280 440 L287 451 C307 479 323 493 294 462 L301 473 L308 484 L315 495 L322 506 C342 22 358 36 329 5 L336 16 L343 27 L350 38 L357 49 C377 77 393 91 364 60 L371 71 L378 82 L385 93 L392 104 C412 132 428 146 399 115 L406 126 L413 137 L420 148 L427 159 C447 187 463 201 434 170 L441 181 L448 192 L455 203 L462 214 C482 242 498 256 469 225 L476 236 L483 247 L490 258 L497 269 C5 297 21 311 504 280 L511 291 L6 302 L13 313 L20 324 C40 352 56 366 27 335 L34 346 L41 357 L48 368 L55 379 C75 407 91 421 62 390 L69 401 L76 412 L83 423 L90 434 C110 462 126 476 97 445 L104 456 L111 467 L118 478 L125 489 C145 5 161 19 132 500 L139 511 L146 10 L153 21 L160 32 C180 60 196 74 167 43 L174 54 L181 65 L188 76 L195 87 C215 115 231 129 202 98 L209 109 L216 120 L223 131 L230 142 C250 170 266 184 237 153 L244 164 L251 175 L258 186 L265 197 C285 225 301 239 272 208 L279 219 L286 230 L293 241 L300 252 C320 280 336 294 307 263 L314 274 L321 285 L328 296 L335 307 C355 335 371 349 342 318 L349 329 L356 340 L363 351 L370 362 C390 390 406 404 377 373 L384 384 L391 395 L398 406 L405 417 C425 445 441 459 412 428 L419 439 L426 450 L433 461 L440 472 C460 500 476 2 447 483 L454 494 L461 505 L468 4 L475 15 C495 43 511 57 482 26 L489 37 L496 48 L503 59 L510 70 C18 98 34 112 5 81 L12 92 L19 103 L26 114 L33 125 Z" fill="#000" stroke="#111" stroke-width="2"/>
</svg>
