<svg width="200" height="200" viewBox="0 0 200 200" xmlns="http://www.w3.org/2000/svg">
  <path d="M0 0h8v8h-8z" fill="#000" stroke="#111"/>
  <path d="M10 0h8v8h-8z" fill="#111" stroke="#222"/>
  <path d="M20 0h8v8h-8z" fill="#222" stroke="#333"/>
  <path d="M30 0h8v8h-8z" fill="#333" stroke="#000"/>
  <path d="M40 0h8v8h-8z" fill="#000" stroke="#111"/>
  <path d="M50 0h8v8h-8z" fill="#111" stroke="#222"/>
  <path d="M60 0h8v8h-8z" fill="#222" stroke="#333"/>
  <path d="M70 0h8v8h-8z" fill="#333" stroke="#000"/>
  <path d="M80 0h8v8h-8z" fill="#000" stroke="#111"/>
  <path d="M90 0h8v8h-8z" fill="#111" stroke="#222"/>
  <path d="M100 0h8v8h-8z" fill="#222" stroke="#333"/>
  <path d="M110 0h8v8h-8z" fill="#333" stroke="#000"/>
  <path d="M120 0h8v8h-8z" fill="#000" stroke="#111"/>
  <path d="M130 0h8v8h-8z" fill="#111" stroke="#222"/>
  <path d="M140 0h8v8h-8z" fill="#222" stroke="#333"/>
  <path d="M150 0h8v8h-8z" fill="#333" stroke="#000"/>
  <path d="M160 0h8v8h-8z" fill="#000" stroke="#111"/>
  <path d="M170 0h8v8h-8z" fill="#111" stroke="#222"/>
  <path d="M180 0h8v8h-8z" fill="#222" stroke="#333"/>
  <path d="M190 0h8v8h-8z" fill="#333" stroke="#000"/>
  <path d="M0 10h8v8h-8z" fill="#000" stroke="#111"/>
  <path d="M10 10h8v8h-8z" fill="#111" stroke="#222"/>
  <path d="M20 10h8v8h-8z" fill="#222" stroke="#333"/>
  <path d="M30 10h8v8h-8z" fill="#333" stroke="#000"/>
  <path d="M40 10h8v8h-8z" fill="#000" stroke="#111"/>
  <path d="M50 10h8v8h-8z" fill="#111" stroke="#222"/>
  <path d="M60 10h8v8h-8z" fill="#222" stroke="#333"/>
  <path d="M70 10h8v8h-8z" fill="#333" stroke="#000"/>
  <path d="M80 10h8v8h-8z" fill="#000" stroke="#111"/>
  <path d="M90 10h8v8h-8z" fill="#111" stroke="#222"/>
  <path d="M100 10h8v8h-8z" fill="#222" stroke="#333"/>
  <path d="M110 10h8v8h-8z" fill="#333" stroke="#000"/>
  <path d="M120 10h8v8h-8z" fill="#000" stroke="#111"/>
  <path d="M130 10h8v8h-8z" fill="#111" stroke="#222"/>
  <path d="M140 10h8v8h-8z" fill="#222" stroke="#333"/>
  <path d="M150 10h8v8h-8z" fill="#333" stroke="#000"/>
  <path d="M160 10h8v8h-8z" fill="#000" stroke="#111"/>
  <path d="M170 10h8v8h-8z" fill="#111" stroke="#222"/>
  <path d="M180 10h8v8h-8z" fill="#222" stroke="#333"/>
  <path d="M190 10h8v8h-8z" fill="#333" stroke="#000"/>
  <path d="M0 20h8v8h-8z" fill="#000" stroke="#111"/>
  <path d="M10 20h8v8h-8z" fill="#111" stroke="#222"/>
  <path d="M20 20h8v8h-8z" fill="#222" stroke="#333"/>
  <path d="M30 20h8v8h-8z" fill="#333" stroke="#000"/>
  <path d="M40 20h8v8h-8z" fill="#000" stroke="#111"/>
  <path d="M50 20h8v8h-8z" fill="#111" stroke="#222"/>
  <path d="M60 20h8v8h-8z" fill="#222" stroke="#333"/>
  <path d="M70 20h8v8h-8z" fill="#333" stroke="#000"/>
  <path d="M80 20h8v8h-8z" fill="#000" stroke="#111"/>
  <path d="M90 20h8v8h-8z" fill="#111" stroke="#222"/>
  <path d="M100 20h8v8h-8z" fill="#222" stroke="#333"/>
  <path d="M110 20h8v8h-8z" fill="#333" stroke="#000"/>
  <path d="M120 20h8v8h-8z" fill="#000" stroke="#111"/>
  <path d="M130 20h8v8h-8z" fill="#111" stroke="#222"/>
  <path d="M140 20h8v8h-8z" fill="#222" stroke="#333"/>
  <path d="M150 20h8v8h-8z" fill="#333" stroke="#000"/>
  <path d="M160 20h8v8h-8z" fill="#000" stroke="#111"/>
  <path d="M170 20h8v8h-8z" fill="#111" stroke="#222"/>
  <path d="M180 20h8v8h-8z" fill="#222" stroke="#333"/>
  <path d="M190 20h8v8h-8z" fill="#333" stroke="#000"/>
  <path d="M0 30h8v8h-8z" fill="#000" stroke="#111"/>
  <path d="M10 30h8v8h-8z" fill="#111" stroke="#222"/>
  <path d="M20 30h8v8h-8z" fill="#222" stroke="#333"/>
  <path d="M30 30h8v8h-8z" fill="#333" stroke="#000"/>
  <path d="M40 30h8v8h-8z" fill="#000" stroke="#111"/>
  <path d="M50 30h8v8h-8z" fill="#111" stroke="#222"/>
  <path d="M60 30h8v8h-8z" fill="#222" stroke="#333"/>
  <path d="M70 30h8v8h-8z" fill="#333" stroke="#000"/>
  <path d="M80 30h8v8h-8z" fill="#000" stroke="#111"/>
  <path d="M90 30h8v8h-8z" fill="#111" stroke="#222"/>
  <path d="M100 30h8v8h-8z" fill="#222" stroke="#333"/>
  <path d="M110 30h8v8h-8z" fill="#333" stroke="#000"/>
  <path d="M120 30h8v8h-8z" fill="#000" stroke="#111"/>
  <path d="M130 30h8v8h-8z" fill="#111" stroke="#222"/>
  <path d="M140 30h8v8h-8z" fill="#222" stroke="#333"/>
  <path d="M150 30h8v8h-8z" fill="#333" stroke="#000"/>
  <path d="M160 30h8v8h-8z" fill="#000" stroke="#111"/>
  <path d="M170 30h8v8h-8z" fill="#111" stroke="#222"/>
  <path d="M180 30h8v8h-8z" fill="#222" stroke="#333"/>
  <path d="M190 30h8v8h-8z" fill="#333" stroke="#000"/>
  <path d="M0 40h8v8h-8z" fill="#000" stroke="#111"/>
  <path d="M10 40h8v8h-8z" fill="#111" stroke="#222"/>
  <path d="M20 40h8v8h-8z" fill="#222" stroke="#333"/>
  <path d="M30 40h8v8h-8z" fill="#333" stroke="#000"/>
  <path d="M40 40h8v8h-8z" fill="#000" stroke="#111"/>
  <path d="M50 40h8v8h-8z" fill="#111" stroke="#222"/>
  <path d="M60 40h8v8h-8z" fill="#222" stroke="#333"/>
  <path d="M70 40h8v8h-8z" fill="#333" stroke="#000"/>
  <path d="M80 40h8v8h-8z" fill="#000" stroke="#111"/>
  <path d="M90 40h8v8h-8z" fill="#111" stroke="#222"/>
  <path d="M100 40h8v8h-8z" fill="#222" stroke="#333"/>
  <path d="M110 40h8v8h-8z" fill="#333" stroke="#000"/>
  <path d="M120 40h8v8h-8z" fill="#000" stroke="#111"/>
  <path d="M130 40h8v8h-8z" fill="#111" stroke="#222"/>
  <path d="M140 40h8v8h-8z" fill="#222" stroke="#333"/>
  <path d="M150 40h8v8h-8z" fill="#333" stroke="#000"/>
  <path d="M160 40h8v8h-8z" fill="#000" stroke="#111"/>
  <path d="M170 40h8v8h-8z" fill="#111" stroke="#222"/>
  <path d="M180 40h8v8h-8z" fill="#222" stroke="#333"/>
  <path d="M190 40h8v8h-8z" fill="#333" stroke="#000"/>
  <path d="M0 50h8v8h-8z" fill="#000" stroke="#111"/>
  <path d="M10 50h8v8h-8z" fill="#111" stroke="#222"/>
  <path d="M20 50h8v8h-8z" fill="#222" stroke="#333"/>
  <path d="M30 50h8v8h-8z" fill="#333" stroke="#000"/>
  <path d="M40 50h8v8h-8z" fill="#000" stroke="#111"/>
  <path d="M50 50h8v8h-8z" fill="#111" stroke="#222"/>
  <path d="M60 50h8v8h-8z" fill="#222" stroke="#333"/>
  <path d="M70 50h8v8h-8z" fill="#333" stroke="#000"/>
  <path d="M80 50h8v8h-8z" fill="#000" stroke="#111"/>
  <path d="M90 50h8v8h-8z" fill="#111" stroke="#222"/>
  <path d="M100 50h8v8h-8z" fill="#222" stroke="#333"/>
  <path d="M110 50h8v8h-8z" fill="#333" stroke="#000"/>
  <path d="M120 50h8v8h-8z" fill="#000" stroke="#111"/>
  <path d="M130 50h8v8h-8z" fill="#111" stroke="#222"/>
  <path d="M140 50h8v8h-8z" fill="#222" stroke="#333"/>
  <path d="M150 50h8v8h-8z" fill="#333" stroke="#000"/>
  <path d="M160 50h8v8h-8z" fill="#000" stroke="#111"/>
  <path d="M170 50h8v8h-8z" fill="#111" stroke="#222"/>
  <path d="M180 50h8v8h-8z" fill="#222" stroke="#333"/>
  <path d="M190 50h8v8h-8z" fill="#333" stroke="#000"/>
  <path d="M0 60h8v8h-8z" fill="#000" stroke="#111"/>
  <path d="M10 60h8v8h-8z" fill="#111" stroke="#222"/>
  <path d="M20 60h8v8h-8z" fill="#222" stroke="#333"/>
  <path d="M30 60h8v8h-8z" fill="#333" stroke="#000"/>
  <path d="M40 60h8v8h-8z" fill="#000" stroke="#111"/>
  <path d="M50 60h8v8h-8z" fill="#111" stroke="#222"/>
  <path d="M60 60h8v8h-8z" fill="#222" stroke="#333"/>
  <path d="M70 60h8v8h-8z" fill="#333" stroke="#000"/>
  <path d="M80 60h8v8h-8z" fill="#000" stroke="#111"/>
  <path d="M90 60h8v8h-8z" fill="#111" stroke="#222"/>
  <path d="M100 60h8v8h-8z" fill="#222" stroke="#333"/>
  <path d="M110 60h8v8h-8z" fill="#333" stroke="#000"/>
  <path d="M120 60h8v8h-8z" fill="#000" stroke="#111"/>
  <path d="M130 60h8v8h-8z" fill="#111" stroke="#222"/>
  <path d="M140 60h8v8h-8z" fill="#222" stroke="#333"/>
  <path d="M150 60h8v8h-8z" fill="#333" stroke="#000"/>
  <path d="M160 60h8v8h-8z" fill="#000" stroke="#111"/>
  <path d="M170 60h8v8h-8z" fill="#111" stroke="#222"/>
  <path d="M180 60h8v8h-8z" fill="#222" stroke="#333"/>
  <path d="M190 60h8v8h-8z" fill="#333" stroke="#000"/>
  <path d="M0 70h8v8h-8z" fill="#000" stroke="#111"/>
  <path d="M10 70h8v8h-8z" fill="#111" stroke="#222"/>
  <path d="M20 70h8v8h-8z" fill="#222" stroke="#333"/>
  <path d="M30 70h8v8h-8z" fill="#333" stroke="#000"/>
  <path d="M40 70h8v8h-8z" fill="#000" stroke="#111"/>
  <path d="M50 70h8v8h-8z" fill="#111" stroke="#222"/>
  <path d="M60 70h8v8h-8z" fill="#222" stroke="#333"/>
  <path d="M70 70h8v8h-8z" fill="#333" stroke="#000"/>
  <path d="M80 70h8v8h-8z" fill="#000" stroke="#111"/>
  <path d="M90 70h8v8h-8z" fill="#111" stroke="#222"/>
  <path d="M100 70h8v8h-8z" fill="#222" stroke="#333"/>
  <path d="M110 70h8v8h-8z" fill="#333" stroke="#000"/>
  <path d="M120 70h8v8h-8z" fill="#000" stroke="#111"/>
  <path d="M130 70h8v8h-8z" fill="#111" stroke="#222"/>
  <path d="M140 70h8v8h-8z" fill="#222" stroke="#333"/>
  <path d="M150 70h8v8h-8z" fill="#333" stroke="#000"/>
  <path d="M160 70h8v8h-8z" fill="#000" stroke="#111"/>
  <path d="M170 70h8v8h-8z" fill="#111" stroke="#222"/>
  <path d="M180 70h8v8h-8z" fill="#222" stroke="#333"/>
  <path d="M190 70h8v8h-8z" fill="#333" stroke="#000"/>
  <path d="M0 80h8v8h-8z" fill="#000" stroke="#111"/>
  <path d="M10 80h8v8h-8z" fill="#111" stroke="#222"/>
  <path d="M20 80h8v8h-8z" fill="#222" stroke="#333"/>
  <path d="M30 80h8v8h-8z" fill="#333" stroke="#000"/>
  <path d="M40 80h8v8h-8z" fill="#000" stroke="#111"/>
  <path d="M50 80h8v8h-8z" fill="#111" stroke="#222"/>
  <path d="M60 80h8v8h-8z" fill="#222" stroke="#333"/>
  <path d="M70 80h8v8h-8z" fill="#333" stroke="#000"/>
  <path d="M80 80h8v8h-8z" fill="#000" stroke="#111"/>
  <path d="M90 80h8v8h-8z" fill="#111" stroke="#222"/>
  <path d="M100 80h8v8h-8z" fill="#222" stroke="#333"/>
  <path d="M110 80h8v8h-8z" fill="#333" stroke="#000"/>
  <path d="M120 80h8v8h-8z" fill="#000" stroke="#111"/>
  <path d="M130 80h8v8h-8z" fill="#111" stroke="#222"/>
  <path d="M140 80h8v8h-8z" fill="#222" stroke="#333"/>
  <path d="M150 80h8v8h-8z" fill="#333" stroke="#000"/>
  <path d="M160 80h8v8h-8z" fill="#000" stroke="#111"/>
  <path d="M170 80h8v8h-8z" fill="#111" stroke="#222"/>
  <path d="M180 80h8v8h-8z" fill="#222" stroke="#333"/>
  <path d="M190 80h8v8h-8z" fill="#333" stroke="#000"/>
  <path d="M0 90h8v8h-8z" fill="#000" stroke="#111"/>
  <path d="M10 90h8v8h-8z" fill="#111" stroke="#222"/>
  <path d="M20 90h8v8h-8z" fill="#222" stroke="#333"/>
  <path d="M30 90h8v8h-8z" fill="#333" stroke="#000"/>
  <path d="M40 90h8v8h-8z" fill="#000" stroke="#111"/>
  <path d="M50 90h8v8h-8z" fill="#111" stroke="#222"/>
  <path d="M60 90h8v8h-8z" fill="#222" stroke="#333"/>
  <path d="M70 90h8v8h-8z" fill="#333" stroke="#000"/>
  <path d="M80 90h8v8h-8z" fill="#000" stroke="#111"/>
  <path d="M90 90h8v8h-8z" fill="#111" stroke="#222"/>
  <path d="M100 90h8v8h-8z" fill="#222" stroke="#333"/>
  <path d="M110 90h8v8h-8z" fill="#333" stroke="#000"/>
  <path d="M120 90h8v8h-8z" fill="#000" stroke="#111"/>
  <path d="M130 90h8v8h-8z" fill="#111" stroke="#222"/>
  <path d="M140 90h8v8h-8z" fill="#222" stroke="#333"/>
  <path d="M150 90h8v8h-8z" fill="#333" stroke="#000"/>
  <path d="M160 90h8v8h-8z" fill="#000" stroke="#111"/>
  <path d="M170 90h8v8h-8z" fill="#111" stroke="#222"/>
  <path d="M180 90h8v8h-8z" fill="#222" stroke="#333"/>
  <path d="M190 90h8v8h-8z" fill="#333" stroke="#000"/>
</svg>
